{"title":"On.a.Clear.Day.You.Can.See.Forever.1970.720p.WEB-DL.DD5.1.H264-F","uid":12018595,"size":4341958345,"categoryP":"video","categoryS":"hd___movies","magnet":"?xt=urn:btih:9346e7b4cc1a33515daa5a60f68da0db0954043d&amp;dn=On.a.Clear.Day.You.Can.See.Forever.1970.720p.WEB-DL.DD5.1.H264-F&amp;tr=udp%3A%2F%2Ftracker.openbittorrent.com%3A80&amp;tr=udp%3A%2F%2Fopen.demonii.com%3A1337&amp;tr=udp%3A%2F%2Ftracker.coppersurfer.tk%3A6969&amp;tr=udp%3A%2F%2Fexodus.desync.com%3A6969","seeders":0,"leechers":0,"uploader":null,"files":3,"time":1434359442,"description":"Video\nID                                       : 1\nFormat                                   : AVC\nFormat/Info                              : Advanced Video Codec\nFormat profile                           : &lt;a class=&quot;__cf_email__&quot; href=&quot;/cdn-cgi/l/email-protection&quot; data-cfemail=&quot;377a565e59777b041906&quot;&gt;[email&amp;#160;protected]&lt;/a&gt;&lt;script data-cfhash='f9e31' type=&quot;text/javascript&quot;&gt;\n/* &lt;![CDATA[ */!function(){try{var t=&quot;currentScript&quot;in document?document.currentScript:function(){for(var t=document.getElementsByTagName(&quot;script&quot;),e=t.length;e--;)if(t[e].getAttribute(&quot;data-cfhash&quot;))return t[e]}();if(t&amp;&amp;t.previousSibling){var e,r,n,i,c=t.previousSibling,a=c.getAttribute(&quot;data-cfemail&quot;);if(a){for(e=&quot;&quot;,r=parseInt(a.substr(0,2),16),n=2;a.length-n;n+=2)i=parseInt(a.substr(n,2),16)^r,e+=String.fromCharCode(i);e=document.createTextNode(e),c.parentNode.replaceChild(e,c)}t.parentNode.removeChild(t);}}catch(u){}}()/* ]]&gt; */&lt;/script&gt;\nFormat settings, CABAC                   : No\nFormat settings, ReFrames                : 2 frames\nCodec ID                                 : V_MPEG4/ISO/AVC\nDuration                                 : 2h 9mn\nBit rate                                 : 3 998 Kbps\nWidth                                    : 1 280 pixels\nHeight                                   : 544 pixels\nDisplay aspect ratio                     : 2.35:1\nFrame rate mode                          : Constant\nFrame rate                               : 23.976 fps\nColor space                              : YUV\nChroma subsampling                       : 4:2:0\nBit depth                                : 8 bits\nScan type                                : Progressive\nBits/(Pixel*Frame)                       : 0.239\nStream size                              : 3.62 GiB (89%)\nTitle                                    : On.a.Clear.Day.You.Can.See.Forever.1970.720p.WEB-DL.DD5.1.H264-FGT\nLanguage                                 : English\nDefault                                  : Yes\nForced                                   : No\nColor range                              : Limited\nColor primaries                          : BT.709\nTransfer characteristics                 : BT.709\nMatrix coefficients                      : BT.709\n\nAudio\nID                                       : 2\nFormat                                   : AC-3\nFormat/Info                              : Audio Coding 3\nMode extension                           : CM (complete main)\nFormat settings, Endianness              : Big\nCodec ID                                 : A_AC3\nDuration                                 : 2h 9mn\nBit rate mode                            : Constant\nBit rate                                 : 384 Kbps\nChannel(s)                               : 6 channels\nChannel positions                        : Front: L C R, Side: L R, LFE\nSampling rate                            : 48.0 KHz\nBit depth                                : 16 bits\nCompression mode                         : Lossy\nStream size                              : 356 MiB (9%)\nTitle                                    : On.a.Clear.Day.You.Can.See.Forever.1970.720p.WEB-DL.DD5.1.H264-FGT\nLanguage                                 : English\nDefault                                  : Yes\nForced                                   : No\n\nText\nID                                       : 3\nFormat                                   : UTF-8\nCodec ID                                 : S_TEXT/UTF8\nCodec ID/Info                            : UTF-8 Plain Text\nLanguage                                 : English\nDefault                                  : Yes\nForced                                   : No\n\nMenu\n00:00:00.000                             : en:Flowers In Bloom\n00:03:07.000                             : en:Main Title\n00:05:31.000                             : en:Classroom Hypnotics\n00:10:35.000                             : en:ESP\n00:17:44.000                             : en:A Cure For Smoking\n00:22:43.000                             : en:Melinda Tentrees\n00:32:13.000                             : eniscovering Love\n00:41:58.000                             : en:Tad And Warren\n00:46:35.000                             : en:Angel Of Mercy Orphanage\n00:55:39.000                             : en:Only A Dream\n01:00:10.000                             : en:One Short Drink\n01:03:51.000                             : en:Unable to Sleep\n01:07:48.000                             : en:Hypnosis By Telepathy\n01:16:36.000                             : en:A Case Of Reincarnation\n01:19:15.000                             : en:Marc's Goodbye\n01:25:14.000                             : en:Resentment\n01:27:58.000                             : en:A Chance Of A Lifetime\n01:30:40.000                             : en:The Tape Recordings\n01:33:20.000                             : en:Rejection\n01:39:26.000                             : en:Get Off My Roof\n01:49:59.000                             : en:Call For Daisy\n01:56:46.000                             : en:Explanation\n01:59:36.000                             : en:John And Laura\n02:03:54.000                             : en:Goodbye Doctor\n02:08:16.000                             : en:End Credits","torrent":{"xt":"urn:btih:9346e7b4cc1a33515daa5a60f68da0db0954043d","amp;dn":"On.a.Clear.Day.You.Can.See.Forever.1970.720p.WEB-DL.DD5.1.H264-F","amp;tr":["udp%3A%2F%2Ftracker.openbittorrent.com%3A80","udp%3A%2F%2Fopen.demonii.com%3A1337","udp%3A%2F%2Ftracker.coppersurfer.tk%3A6969","udp%3A%2F%2Fexodus.desync.com%3A6969"],"infoHash":"9346e7b4cc1a33515daa5a60f68da0db0954043d","infoHashBuffer":{"type":"Buffer","data":[147,70,231,180,204,26,51,81,93,170,90,96,246,141,160,219,9,84,4,61]},"announce":[],"urlList":[]}}